<?xml version="1.0" standalone="no"?><!DOCTYPE svg PUBLIC "-//W3C//DTD SVG 1.1//EN" "http://www.w3.org/Graphics/SVG/1.1/DTD/svg11.dtd"><svg t="1679914865951" class="icon" viewBox="0 0 1024 1024" version="1.1" xmlns="http://www.w3.org/2000/svg" p-id="1522" xmlns:xlink="http://www.w3.org/1999/xlink" width="200" height="200"><path d="M908.6976 479.1808l-100.4544-89.7024V249.2928c0-9.4208-7.6288-17.0496-17.0496-17.0496h-74.5472c-9.4208 0-17.0496 7.6288-17.0496 17.0496v43.1616l-161.5872-144.2816a42.50624 42.50624 0 0 0-56.7296 0.1024L118.528 474.0608c-24.832 22.272-9.0624 63.4368 24.32 63.4368h85.3504v274.0736c0 36.0448 29.2352 65.28 65.28 65.28h438.5792c36.0448 0 65.28-29.2352 65.28-65.28v-274.0736h89.088c30.72 0 45.1584-37.888 22.272-58.3168z" fill="#B3FFC7" p-id="1523"></path><path d="M818.4832 398.592l-10.24-9.1648V249.2928c0-9.4208-7.6288-17.0496-17.0496-17.0496h-74.5472c-9.4208 0-17.0496 7.6288-17.0496 17.0496v43.1616l-161.5872-144.2816a42.50624 42.50624 0 0 0-56.7296 0.1024L118.528 474.0608c-24.832 22.272-9.0624 63.4368 24.32 63.4368h85.3504v196.608c24.064 9.6768 49.3056 17.3568 75.6224 22.6816 234.4448 47.8208 463.2576-103.4752 511.0272-337.92 1.3824-6.7072 2.56-13.5168 3.6352-20.2752z" fill="#CCFFDA" p-id="1524"></path><path d="M228.1472 610.3552c239.0528 17.2032 459.8784-140.9024 517.2736-378.1632h-28.8256c-9.4208 0-17.0496 7.6288-17.0496 17.0496v43.1616l-161.5872-144.2816a42.50624 42.50624 0 0 0-56.7296 0.1024L118.528 474.0608c-24.832 22.272-9.0624 63.4368 24.32 63.4368h85.3504v72.8576z" fill="#D9FFE6" p-id="1525"></path><path d="M603.8528 206.9504l-65.792-58.7264a42.50624 42.50624 0 0 0-56.7296 0.1024L143.616 451.5328c189.5936 13.312 367.5648-84.4288 460.2368-244.5824z" fill="#E9FFF1" p-id="1526"></path><path d="M632.7808 557.824c15.5648 0 28.16-12.5952 28.16-28.16s-12.5952-28.16-28.16-28.16H577.536l61.0816-59.648c11.1104-10.8544 11.3152-28.672 0.4608-39.8336-10.8544-11.1104-28.672-11.3152-39.8336-0.4608l-81.2544 79.36-81.152-79.36a28.15488 28.15488 0 0 0-39.8336 0.4608 28.15488 28.15488 0 0 0 0.4608 39.8336l61.0304 59.6992H403.2512c-15.5648 0-28.16 12.5952-28.16 28.16s12.5952 28.16 28.16 28.16h86.5792v51.3536H403.2512c-15.5648 0-28.16 12.5952-28.16 28.16s12.5952 28.16 28.16 28.16h86.5792v85.9648c0 15.5648 12.5952 28.16 28.16 28.16s28.16-12.5952 28.16-28.16v-85.9648h86.5792c15.5648 0 28.16-12.5952 28.16-28.16s-12.5952-28.16-28.16-28.16h-86.5792v-51.3536h86.6304z" fill="#333333" p-id="1527"></path><path d="M932.3008 457.0112L841.216 375.7056V248.1152c0-24.9344-20.2752-45.2096-45.2096-45.2096h-74.5472c-18.9952 0-35.2768 11.776-41.984 28.3648L561.664 126.0032a70.56896 70.56896 0 0 0-94.3104 0.1536L104.5504 451.9424c-20.0704 18.0224-26.7776 45.9264-17.152 71.1168 9.6256 25.1904 33.28 41.472 60.2624 41.472h57.1904v245.9136c0 51.5584 41.9328 93.44 93.44 93.44h438.5792c51.5584 0 93.44-41.9328 93.44-93.44v-245.9136h60.928c25.7536 0 48.3328-15.5648 57.5488-39.6288 9.216-24.1152 2.7648-50.7392-16.4864-67.8912z m-36.096 47.8208c-1.28 3.3792-3.9424 3.3792-4.9152 3.3792h-89.088c-15.5648 0-28.16 12.5952-28.16 28.16v274.0736c0 20.48-16.64 37.12-37.12 37.12H298.3424c-20.48 0-37.12-16.64-37.12-37.12v-274.0736c0-15.5648-12.5952-28.16-28.16-28.16H147.6608c-4.6592 0-6.7584-2.8672-7.68-5.2736-0.9216-2.4064-1.28-5.9392 2.2016-9.0624l362.8032-325.7856a14.42816 14.42816 0 0 1 19.2-0.0512L685.7216 312.32a28.2624 28.2624 0 0 0 30.2592 4.7104 28.14976 28.14976 0 0 0 16.64-25.7024v-32.0512h52.3264v129.0752c0 8.0384 3.4304 15.6672 9.4208 20.992l100.5056 89.7024c0.6656 0.6144 2.6624 2.3552 1.3312 5.7856z" fill="#333333" p-id="1528"></path></svg>